<svg width="30" height="30" viewBox="0 0 30 30" fill="none" xmlns="http://www.w3.org/2000/svg">
<path d="M0 15C0 6.71572 6.71572 0 15 0C23.2842 0 30 6.71572 30 15C30 23.2842 23.2842 30 15 30C6.71572 30 0 23.2842 0 15ZM15 1.50001C7.54417 1.50001 1.50001 7.54417 1.50001 15C1.50001 19.9969 4.21484 24.3597 8.25001 26.694V19.0999C8.25001 16.3762 9.86315 14.0293 12.1862 12.9625C10.8457 12.0577 9.96426 10.5246 9.96426 8.78568C9.96426 6.00454 12.2189 3.74997 15 3.74997C17.7812 3.74997 20.0357 6.00454 20.0357 8.78568C20.0357 10.5246 19.1543 12.0577 17.8137 12.9625C20.1368 14.0293 21.75 16.3762 21.75 19.0999V26.694C25.7852 24.3597 28.5 19.9969 28.5 15C28.5 7.54417 22.4559 1.50001 15 1.50001ZM20.25 27.4412V19.1C20.25 16.2004 17.8995 13.85 15 13.85C12.1005 13.85 9.75002 16.2005 9.75002 19.1V27.4412C11.3639 28.123 13.1379 28.5 15 28.5C16.8621 28.5 18.6361 28.123 20.25 27.4412ZM15 5.25002C13.0473 5.25002 11.4642 6.833 11.4642 8.78572C11.4642 10.7384 13.0473 12.3214 15 12.3214C16.9527 12.3214 18.5357 10.7384 18.5357 8.78572C18.5357 6.833 16.9527 5.25002 15 5.25002Z" fill="#4A4844"/>
</svg>
