<svg width="270" height="270" viewBox="0 0 270 270" fill="none" xmlns="http://www.w3.org/2000/svg">
<path d="M0 40C0 17.9086 17.9086 0 40 0H230C252.091 0 270 17.9086 270 40V230C270 252.091 252.091 270 230 270H40C17.9086 270 0 252.091 0 230V40Z" fill="#F97316"/>
<path d="M165.411 106.94C164.703 104.054 163.586 101.522 162.062 99.3445C160.537 97.112 158.631 95.2334 156.344 93.7088C154.112 92.1297 151.498 90.959 148.504 90.1967C145.563 89.38 142.323 88.9716 138.784 88.9716C131.161 88.9716 124.654 90.7957 119.263 94.4439C113.927 98.0921 109.844 103.347 107.012 110.207C104.235 117.068 102.847 125.345 102.847 135.037C102.847 144.838 104.181 153.223 106.849 160.193C109.517 167.163 113.492 172.499 118.773 176.202C124.055 179.904 130.616 181.756 138.457 181.756C145.373 181.756 151.117 180.748 155.691 178.734C160.319 176.719 163.777 173.86 166.064 170.158C168.351 166.455 169.494 162.099 169.494 157.089L177.335 157.906H139.111V125.562H213.273V148.759C213.273 164.005 210.033 177.046 203.553 187.881C197.128 198.663 188.253 206.939 176.927 212.711C165.656 218.428 152.723 221.287 138.131 221.287C121.85 221.287 107.557 217.829 95.2507 210.914C82.9448 203.999 73.3343 194.143 66.419 181.347C59.5582 168.551 56.1278 153.332 56.1278 135.69C56.1278 121.86 58.2242 109.608 62.4169 98.9361C66.6641 88.2637 72.5447 79.2521 80.0589 71.9013C87.5732 64.496 96.2581 58.9148 106.114 55.1577C115.969 51.3461 126.533 49.4403 137.804 49.4403C147.714 49.4403 156.916 50.8561 165.411 53.6875C173.959 56.4645 181.501 60.4394 188.035 65.6122C194.623 70.7306 199.932 76.8018 203.962 83.826C207.991 90.8501 210.441 98.5549 211.312 106.94H165.411Z" fill="white"/>
</svg>
