<svg width="100" height="100" viewBox="0 0 100 100" fill="none" xmlns="http://www.w3.org/2000/svg">
<g clip-path="url(#clip0_265_78)">
<path d="M91.6667 5.55029H8.33332C6.80172 5.55029 5.55011 6.78535 5.55011 8.3335V91.6669C5.55011 93.1985 6.78517 94.4501 8.33332 94.4501H91.6667C93.1983 94.4501 94.4499 93.215 94.4499 91.6669V8.3335C94.4499 6.80191 93.1983 5.55029 91.6667 5.55029Z" fill="white"/>
<path d="M11.1165 11.1167V26.0046H25.4445C26.9761 26.0046 28.2277 27.2397 28.2277 28.7878C28.2277 30.3194 26.9926 31.571 25.4445 31.571H11.1165V37.8788H17.4406C18.9722 37.8788 20.2238 39.1138 20.2238 40.662C20.2238 42.1936 18.9887 43.4452 17.4406 43.4452H11.1165V88.9328H88.8998V11.1167H11.1165Z" fill="#FF9900"/>
<path d="M65.0857 45.1416C65.0857 36.6106 58.1523 29.6606 49.6047 29.6606C41.0737 29.6606 34.1237 36.5941 34.1237 45.1416C34.1237 53.6726 41.0572 60.6226 49.6047 60.6226C58.1523 60.5895 65.0857 53.6561 65.0857 45.1416Z" fill="#56ACE0"/>
<path d="M49.6213 24.1104C38.0271 24.1104 28.5902 33.547 28.5902 45.1414C28.5902 56.7359 38.0269 66.1725 49.6213 66.1725C61.2157 66.1725 70.6524 56.7359 70.6524 45.1414C70.6522 33.5473 61.2155 24.1104 49.6213 24.1104ZM34.1569 45.1414C34.1569 36.6104 41.0903 29.6605 49.6379 29.6605C58.1689 29.6605 65.1189 36.5939 65.1189 45.1414C65.1189 53.6725 58.1854 60.6224 49.6379 60.6224C41.1069 60.5893 34.1569 53.6559 34.1569 45.1414Z" fill="#194F82"/>
<path d="M91.6504 0H8.33331C3.73854 0 0 3.73854 0 8.33331V91.6667C0 96.2615 3.73854 100 8.33331 100H91.6667C96.2615 100 100 96.2615 100 91.6501V8.33331C100 3.73854 96.2617 0 91.6504 0ZM94.4336 91.6504C94.4336 93.182 93.1983 94.4336 91.6504 94.4336H8.33331C6.80172 94.4336 5.55011 93.1985 5.55011 91.6504V8.33331C5.55011 6.80172 6.78516 5.55011 8.33331 5.55011H91.6667C93.1983 5.55011 94.4499 6.78516 94.4499 8.33331V91.6501H94.4336V91.6504Z" fill="#194F82"/>
<path d="M20.2569 14.9868H17.21C15.6784 14.9868 14.4268 16.2219 14.4268 17.77C14.4268 19.3182 15.6619 20.5532 17.21 20.5532H20.2569C21.7885 20.5532 23.0401 19.3182 23.0401 17.77C23.0401 16.2219 21.7885 14.9868 20.2569 14.9868Z" fill="#194F82"/>
<path d="M34.9474 14.9868H31.8842C30.3526 14.9868 29.101 16.2219 29.101 17.77C29.101 19.3182 30.336 20.5532 31.8842 20.5532H34.9311C36.4627 20.5532 37.7143 19.3182 37.7143 17.77C37.7143 16.2219 36.479 14.9868 34.9474 14.9868Z" fill="#194F82"/>
<path d="M49.6047 14.9868H46.5579C45.0263 14.9868 43.7747 16.2219 43.7747 17.77C43.7747 19.3182 45.0097 20.5532 46.5579 20.5532H49.6047C51.1363 20.5532 52.3879 19.3182 52.3879 17.77C52.3879 16.2219 51.1363 14.9868 49.6047 14.9868Z" fill="#194F82"/>
<path d="M35.0131 80.023V77.1081H38.5705V80.023H40.4644V83.2344H38.5705V87.2035H34.9802V83.2344H28.2939V80.4018L34.2228 70.5532H38.2742L32.6253 80.023H35.0131Z" fill="#194F82"/>
<path d="M65.4809 80.023V77.1081H69.0711V80.023H70.965V83.2344H69.0711V87.2035H65.4809V83.2344H58.7946V80.4018L64.7235 70.5532H68.7749L63.1259 80.023H65.4809Z" fill="#194F82"/>
<path d="M42.4573 41.1563H43.8078C45.3394 41.1563 46.591 39.9212 46.591 38.373C46.591 36.8249 45.3559 35.5898 43.8078 35.5898H42.4573C40.9257 35.5898 39.6741 36.8249 39.6741 38.373C39.6904 39.9209 40.9255 41.1563 42.4573 41.1563Z" fill="#194F82"/>
<path d="M55.4183 41.1563H56.7687C58.3003 41.1563 59.5519 39.9212 59.5519 38.373C59.5519 36.8249 58.3169 35.5898 56.7687 35.5898H55.4183C53.8867 35.5898 52.6351 36.8249 52.6351 38.373C52.6351 39.9209 53.8704 41.1563 55.4183 41.1563Z" fill="#194F82"/>
<path d="M40.7115 53.8375C41.7985 54.9245 43.5441 54.9245 44.6477 53.8375C45.9816 52.5036 47.7603 51.7625 49.6544 51.7625C51.5485 51.7625 53.2118 52.6024 54.628 53.8375C56.423 55.369 58.0206 54.3808 58.5643 53.8375C59.6513 52.7504 59.6513 51.0048 58.5643 49.9012C56.1762 47.5131 53.0141 46.1958 49.6544 46.1958C46.2947 46.1958 43.1161 47.5134 40.7446 49.9012C39.6244 50.9883 39.6244 52.7507 40.7115 53.8375Z" fill="#194F82"/>
<path d="M49.7201 69.9277C44.8617 69.9277 42.5562 73.584 42.5562 78.887C42.5562 84.8653 45.3065 87.8462 49.7201 87.8462C54.5786 87.8462 56.8841 84.19 56.8841 78.887C56.8841 72.8921 54.1503 69.9277 49.7201 69.9277ZM49.7201 84.6511C46.6898 84.6511 46.3604 80.6326 46.3604 78.887C46.3604 77.1411 46.5581 73.1229 49.7201 73.1229C52.7505 73.1229 53.0799 77.1414 53.0799 78.887C53.1127 80.6326 52.915 84.6511 49.7201 84.6511Z" fill="#194F82"/>
</g>
<defs>
<clipPath id="clip0_265_78">
<rect width="100" height="100" fill="white"/>
</clipPath>
</defs>
</svg>
