<svg width="30" height="30" viewBox="0 0 30 30" fill="none" xmlns="http://www.w3.org/2000/svg">
<path d="M15 0C6.72891 0 0 6.72891 0 15C0 23.2711 6.72891 30 15 30C23.2711 30 30 23.2711 30 15C30 6.72891 23.2711 0 15 0ZM21.25 23.018L17.0195 18.7875C15.6056 19.7605 13.8791 20.1699 12.1788 19.9355C10.4785 19.701 8.92726 18.8397 7.82937 17.5204C6.73149 16.2011 6.16627 14.5191 6.24463 12.8045C6.323 11.09 7.03928 9.46658 8.25293 8.25293C9.46658 7.03928 11.09 6.323 12.8045 6.24463C14.5191 6.16627 16.2011 6.73149 17.5204 7.82937C18.8397 8.92726 19.701 10.4785 19.9355 12.1788C20.1699 13.8791 19.7605 15.6056 18.7875 17.0195L23.018 21.25L21.25 23.018Z" fill="#F97316"/>
<path d="M13.125 17.5C15.5412 17.5 17.5 15.5412 17.5 13.125C17.5 10.7088 15.5412 8.75 13.125 8.75C10.7088 8.75 8.75 10.7088 8.75 13.125C8.75 15.5412 10.7088 17.5 13.125 17.5Z" fill="#F97316"/>
</svg>
